<mxfile host="app.diagrams.net" modified="2021-05-14T20:58:02.152Z" agent="5.0 (Windows NT 10.0; Win64; x64) AppleWebKit/537.36 (KHTML, like Gecko) Chrome/90.0.4430.212 Safari/537.36" etag="BchdbMiBEpvUppFe6e-y" version="14.6.13" type="github" pages="2">
  <diagram id="0dlWrKLZBK4IdB41tswg" name="Page-1">
    <mxGraphModel dx="942" dy="614" grid="1" gridSize="10" guides="1" tooltips="1" connect="1" arrows="1" fold="1" page="1" pageScale="1" pageWidth="827" pageHeight="1169" math="0" shadow="0">
      <root>
        <mxCell id="0" />
        <mxCell id="1" parent="0" />
        <mxCell id="QpBW57TXKbRYsMBEompL-1" value="" style="shape=image;html=1;verticalAlign=top;verticalLabelPosition=bottom;labelBackgroundColor=#ffffff;imageAspect=0;aspect=fixed;image=https://cdn0.iconfinder.com/data/icons/streamline-emoji-1/48/138-man-farmer-2-128.png" parent="1" vertex="1">
          <mxGeometry x="90" y="146" width="128" height="128" as="geometry" />
        </mxCell>
        <mxCell id="QpBW57TXKbRYsMBEompL-2" value="" style="shape=image;html=1;verticalAlign=top;verticalLabelPosition=bottom;labelBackgroundColor=#ffffff;imageAspect=0;aspect=fixed;image=https://cdn1.iconfinder.com/data/icons/bokbokstars-121-classic-stock-icons-1/128/person-man.png" parent="1" vertex="1">
          <mxGeometry x="590" y="146" width="128" height="128" as="geometry" />
        </mxCell>
        <mxCell id="QpBW57TXKbRYsMBEompL-3" value="" style="shape=image;html=1;verticalAlign=top;verticalLabelPosition=bottom;labelBackgroundColor=#ffffff;imageAspect=0;aspect=fixed;image=https://cdn1.iconfinder.com/data/icons/business-and-finance-20/200/vector_65_12-128.png" parent="1" vertex="1">
          <mxGeometry x="350" y="220" width="128" height="128" as="geometry" />
        </mxCell>
        <mxCell id="QpBW57TXKbRYsMBEompL-4" value="" style="shape=image;html=1;verticalAlign=top;verticalLabelPosition=bottom;labelBackgroundColor=#ffffff;imageAspect=0;aspect=fixed;image=https://cdn2.iconfinder.com/data/icons/essential-web-4/50/content-form-contract-article-paper-128.png" parent="1" vertex="1">
          <mxGeometry x="350" y="420" width="128" height="128" as="geometry" />
        </mxCell>
        <mxCell id="QpBW57TXKbRYsMBEompL-5" value="" style="shape=image;html=1;verticalAlign=top;verticalLabelPosition=bottom;labelBackgroundColor=#ffffff;imageAspect=0;aspect=fixed;image=https://cdn2.iconfinder.com/data/icons/ecommerce-tiny-line/64/transaction_ecommerce_shop-128.png" parent="1" vertex="1">
          <mxGeometry x="350" y="600" width="128" height="128" as="geometry" />
        </mxCell>
        <mxCell id="QpBW57TXKbRYsMBEompL-12" value="&lt;font style=&quot;font-size: 20px&quot;&gt;Farmer&lt;/font&gt;" style="text;html=1;align=center;verticalAlign=middle;resizable=0;points=[];autosize=1;" parent="1" vertex="1">
          <mxGeometry x="114" y="274" width="80" height="20" as="geometry" />
        </mxCell>
        <mxCell id="QpBW57TXKbRYsMBEompL-13" value="&lt;font style=&quot;font-size: 19px&quot;&gt;Insurer&lt;/font&gt;" style="text;html=1;align=center;verticalAlign=middle;resizable=0;points=[];autosize=1;" parent="1" vertex="1">
          <mxGeometry x="619" y="280" width="70" height="20" as="geometry" />
        </mxCell>
        <mxCell id="QpBW57TXKbRYsMBEompL-14" value="&lt;font style=&quot;font-size: 18px&quot;&gt;Comes to an agreement&amp;nbsp;&lt;/font&gt;" style="text;html=1;align=center;verticalAlign=middle;resizable=0;points=[];autosize=1;" parent="1" vertex="1">
          <mxGeometry x="309" y="200" width="210" height="20" as="geometry" />
        </mxCell>
        <mxCell id="QpBW57TXKbRYsMBEompL-15" value="" style="endArrow=classic;html=1;exitX=0.5;exitY=1;exitDx=0;exitDy=0;" parent="1" source="QpBW57TXKbRYsMBEompL-3" target="QpBW57TXKbRYsMBEompL-4" edge="1">
          <mxGeometry relative="1" as="geometry">
            <mxPoint x="290" y="290" as="sourcePoint" />
            <mxPoint x="390" y="290" as="targetPoint" />
          </mxGeometry>
        </mxCell>
        <mxCell id="QpBW57TXKbRYsMBEompL-16" value="&lt;font style=&quot;font-size: 18px&quot;&gt;Smart Contract&amp;nbsp;&lt;/font&gt;" style="edgeLabel;resizable=0;html=1;align=center;verticalAlign=middle;" parent="QpBW57TXKbRYsMBEompL-15" connectable="0" vertex="1">
          <mxGeometry relative="1" as="geometry" />
        </mxCell>
        <mxCell id="QpBW57TXKbRYsMBEompL-17" value="" style="group" parent="1" vertex="1" connectable="0">
          <mxGeometry x="346" y="820" width="135" height="110" as="geometry" />
        </mxCell>
        <mxCell id="QpBW57TXKbRYsMBEompL-7" value="" style="aspect=fixed;perimeter=ellipsePerimeter;html=1;align=center;shadow=0;dashed=0;spacingTop=3;image;image=img/lib/active_directory/database_cube.svg;" parent="QpBW57TXKbRYsMBEompL-17" vertex="1">
          <mxGeometry width="45" height="50" as="geometry" />
        </mxCell>
        <mxCell id="QpBW57TXKbRYsMBEompL-8" value="" style="aspect=fixed;perimeter=ellipsePerimeter;html=1;align=center;shadow=0;dashed=0;spacingTop=3;image;image=img/lib/active_directory/database_cube.svg;" parent="QpBW57TXKbRYsMBEompL-17" vertex="1">
          <mxGeometry x="45" y="30" width="45" height="50" as="geometry" />
        </mxCell>
        <mxCell id="QpBW57TXKbRYsMBEompL-9" value="" style="aspect=fixed;perimeter=ellipsePerimeter;html=1;align=center;shadow=0;dashed=0;spacingTop=3;image;image=img/lib/active_directory/database_cube.svg;" parent="QpBW57TXKbRYsMBEompL-17" vertex="1">
          <mxGeometry x="90" y="60" width="45" height="50" as="geometry" />
        </mxCell>
        <mxCell id="QpBW57TXKbRYsMBEompL-10" value="" style="endArrow=none;html=1;entryX=0.5;entryY=0;entryDx=0;entryDy=0;exitX=1;exitY=0.25;exitDx=0;exitDy=0;" parent="QpBW57TXKbRYsMBEompL-17" source="QpBW57TXKbRYsMBEompL-7" target="QpBW57TXKbRYsMBEompL-8" edge="1">
          <mxGeometry width="50" height="50" relative="1" as="geometry">
            <mxPoint x="10" y="-90" as="sourcePoint" />
            <mxPoint x="60" y="-140" as="targetPoint" />
          </mxGeometry>
        </mxCell>
        <mxCell id="QpBW57TXKbRYsMBEompL-11" value="" style="endArrow=none;html=1;exitX=0.5;exitY=0;exitDx=0;exitDy=0;" parent="QpBW57TXKbRYsMBEompL-17" source="QpBW57TXKbRYsMBEompL-9" edge="1">
          <mxGeometry width="50" height="50" relative="1" as="geometry">
            <mxPoint x="90" y="40" as="sourcePoint" />
            <mxPoint x="80" y="40" as="targetPoint" />
          </mxGeometry>
        </mxCell>
        <mxCell id="QpBW57TXKbRYsMBEompL-18" value="" style="endArrow=classic;html=1;exitX=0.5;exitY=1;exitDx=0;exitDy=0;entryX=0.5;entryY=0;entryDx=0;entryDy=0;" parent="1" source="QpBW57TXKbRYsMBEompL-4" target="QpBW57TXKbRYsMBEompL-5" edge="1">
          <mxGeometry relative="1" as="geometry">
            <mxPoint x="290" y="630" as="sourcePoint" />
            <mxPoint x="390" y="630" as="targetPoint" />
          </mxGeometry>
        </mxCell>
        <mxCell id="QpBW57TXKbRYsMBEompL-19" value="&lt;font style=&quot;font-size: 18px&quot;&gt;Create transaction&lt;/font&gt;" style="edgeLabel;resizable=0;html=1;align=center;verticalAlign=middle;" parent="QpBW57TXKbRYsMBEompL-18" connectable="0" vertex="1">
          <mxGeometry relative="1" as="geometry" />
        </mxCell>
        <mxCell id="QpBW57TXKbRYsMBEompL-22" value="" style="endArrow=classic;html=1;exitX=0.5;exitY=1;exitDx=0;exitDy=0;entryX=0.5;entryY=0;entryDx=0;entryDy=0;" parent="1" source="QpBW57TXKbRYsMBEompL-5" target="QpBW57TXKbRYsMBEompL-8" edge="1">
          <mxGeometry relative="1" as="geometry">
            <mxPoint x="390" y="930" as="sourcePoint" />
            <mxPoint x="490" y="930" as="targetPoint" />
          </mxGeometry>
        </mxCell>
        <mxCell id="QpBW57TXKbRYsMBEompL-23" value="&lt;span style=&quot;font-size: 18px&quot;&gt;Transaction record added to the blockchain&lt;/span&gt;" style="edgeLabel;resizable=0;html=1;align=center;verticalAlign=middle;" parent="QpBW57TXKbRYsMBEompL-22" connectable="0" vertex="1">
          <mxGeometry relative="1" as="geometry" />
        </mxCell>
        <mxCell id="F-87QJIrLYqHyFYULLW--8" value="" style="edgeStyle=orthogonalEdgeStyle;rounded=0;orthogonalLoop=1;jettySize=auto;html=1;" parent="1" source="F-87QJIrLYqHyFYULLW--3" target="QpBW57TXKbRYsMBEompL-14" edge="1">
          <mxGeometry relative="1" as="geometry" />
        </mxCell>
        <mxCell id="F-87QJIrLYqHyFYULLW--3" value="" style="pointerEvents=1;shadow=0;dashed=0;html=1;strokeColor=none;labelPosition=center;verticalLabelPosition=bottom;verticalAlign=top;align=center;fillColor=#505050;shape=mxgraph.mscae.intune.policy" parent="1" vertex="1">
          <mxGeometry x="380" y="40" width="67" height="80" as="geometry" />
        </mxCell>
        <mxCell id="F-87QJIrLYqHyFYULLW--4" value="" style="endArrow=classic;html=1;entryX=0.12;entryY=0.5;entryDx=0;entryDy=0;entryPerimeter=0;exitX=1;exitY=0.25;exitDx=0;exitDy=0;" parent="1" source="QpBW57TXKbRYsMBEompL-1" target="F-87QJIrLYqHyFYULLW--3" edge="1">
          <mxGeometry relative="1" as="geometry">
            <mxPoint x="220" y="146" as="sourcePoint" />
            <mxPoint x="460" y="300" as="targetPoint" />
          </mxGeometry>
        </mxCell>
        <mxCell id="F-87QJIrLYqHyFYULLW--5" value="&lt;font style=&quot;font-size: 14px&quot;&gt;Purchase&lt;/font&gt;" style="edgeLabel;resizable=0;html=1;align=center;verticalAlign=middle;" parent="F-87QJIrLYqHyFYULLW--4" connectable="0" vertex="1">
          <mxGeometry relative="1" as="geometry" />
        </mxCell>
        <mxCell id="F-87QJIrLYqHyFYULLW--6" value="" style="endArrow=classic;html=1;exitX=0;exitY=0.25;exitDx=0;exitDy=0;entryX=1;entryY=0.475;entryDx=0;entryDy=0;entryPerimeter=0;" parent="1" source="QpBW57TXKbRYsMBEompL-2" target="F-87QJIrLYqHyFYULLW--3" edge="1">
          <mxGeometry relative="1" as="geometry">
            <mxPoint x="360" y="300" as="sourcePoint" />
            <mxPoint x="460" y="300" as="targetPoint" />
          </mxGeometry>
        </mxCell>
        <mxCell id="F-87QJIrLYqHyFYULLW--7" value="&lt;span style=&quot;font-size: 14px&quot;&gt;Launch&lt;/span&gt;" style="edgeLabel;resizable=0;html=1;align=center;verticalAlign=middle;" parent="F-87QJIrLYqHyFYULLW--6" connectable="0" vertex="1">
          <mxGeometry relative="1" as="geometry" />
        </mxCell>
        <mxCell id="F-87QJIrLYqHyFYULLW--9" value="" style="endArrow=classic;html=1;exitX=1.039;exitY=0.836;exitDx=0;exitDy=0;exitPerimeter=0;entryX=0;entryY=0.5;entryDx=0;entryDy=0;" parent="1" source="QpBW57TXKbRYsMBEompL-1" target="QpBW57TXKbRYsMBEompL-3" edge="1">
          <mxGeometry width="50" height="50" relative="1" as="geometry">
            <mxPoint x="390" y="320" as="sourcePoint" />
            <mxPoint x="440" y="270" as="targetPoint" />
          </mxGeometry>
        </mxCell>
        <mxCell id="F-87QJIrLYqHyFYULLW--10" value="" style="endArrow=classic;html=1;exitX=0;exitY=0.75;exitDx=0;exitDy=0;" parent="1" source="QpBW57TXKbRYsMBEompL-2" edge="1">
          <mxGeometry width="50" height="50" relative="1" as="geometry">
            <mxPoint x="390" y="320" as="sourcePoint" />
            <mxPoint x="480" y="280" as="targetPoint" />
          </mxGeometry>
        </mxCell>
        <mxCell id="F-87QJIrLYqHyFYULLW--11" value="&lt;font style=&quot;font-size: 18px&quot;&gt;Policy&lt;/font&gt;" style="text;html=1;align=center;verticalAlign=middle;resizable=0;points=[];autosize=1;" parent="1" vertex="1">
          <mxGeometry x="410" y="120" width="60" height="20" as="geometry" />
        </mxCell>
      </root>
    </mxGraphModel>
  </diagram>
  <diagram id="s-NmrMCc7oeA-dwHRdtx" name="Page-2">
    <mxGraphModel dx="942" dy="614" grid="1" gridSize="10" guides="1" tooltips="1" connect="1" arrows="1" fold="1" page="1" pageScale="1" pageWidth="827" pageHeight="1169" math="0" shadow="0">
      <root>
        <mxCell id="f6SLV1mwWDFFY3GgYzQP-0" />
        <mxCell id="f6SLV1mwWDFFY3GgYzQP-1" parent="f6SLV1mwWDFFY3GgYzQP-0" />
        <mxCell id="f6SLV1mwWDFFY3GgYzQP-2" value="" style="shape=image;html=1;verticalAlign=top;verticalLabelPosition=bottom;labelBackgroundColor=#ffffff;imageAspect=0;aspect=fixed;image=https://cdn1.iconfinder.com/data/icons/aging-society-fill-enhance-elderly/512/Elder_man_working_employee-128.png" vertex="1" parent="f6SLV1mwWDFFY3GgYzQP-1">
          <mxGeometry x="160" y="400" width="128" height="128" as="geometry" />
        </mxCell>
        <mxCell id="f6SLV1mwWDFFY3GgYzQP-3" value="" style="image;html=1;image=img/lib/clip_art/people/Farmer_Man_Black_128x128.png" vertex="1" parent="f6SLV1mwWDFFY3GgYzQP-1">
          <mxGeometry x="370" y="490" width="80" height="80" as="geometry" />
        </mxCell>
        <mxCell id="f6SLV1mwWDFFY3GgYzQP-4" value="" style="image;html=1;image=img/lib/clip_art/people/Farmer_Man_Black_128x128.png" vertex="1" parent="f6SLV1mwWDFFY3GgYzQP-1">
          <mxGeometry x="370" y="670" width="80" height="80" as="geometry" />
        </mxCell>
        <mxCell id="f6SLV1mwWDFFY3GgYzQP-5" value="" style="shape=image;html=1;verticalAlign=top;verticalLabelPosition=bottom;labelBackgroundColor=#ffffff;imageAspect=0;aspect=fixed;image=https://cdn2.iconfinder.com/data/icons/building-219/66/43-128.png" vertex="1" parent="f6SLV1mwWDFFY3GgYzQP-1">
          <mxGeometry x="60" y="630" width="128" height="128" as="geometry" />
        </mxCell>
        <mxCell id="f6SLV1mwWDFFY3GgYzQP-30" value="" style="edgeStyle=orthogonalEdgeStyle;rounded=0;orthogonalLoop=1;jettySize=auto;html=1;" edge="1" parent="f6SLV1mwWDFFY3GgYzQP-1" source="f6SLV1mwWDFFY3GgYzQP-6" target="f6SLV1mwWDFFY3GgYzQP-7">
          <mxGeometry relative="1" as="geometry">
            <mxPoint x="450" y="915.9000000000001" as="targetPoint" />
          </mxGeometry>
        </mxCell>
        <mxCell id="f6SLV1mwWDFFY3GgYzQP-6" value="" style="outlineConnect=0;fontColor=#232F3E;gradientColor=none;fillColor=#D05C17;strokeColor=none;dashed=0;verticalLabelPosition=bottom;verticalAlign=top;align=center;html=1;fontSize=12;fontStyle=0;aspect=fixed;shape=mxgraph.aws4.blockchain_resource;" vertex="1" parent="f6SLV1mwWDFFY3GgYzQP-1">
          <mxGeometry x="120" y="890" width="175.65" height="51.8" as="geometry" />
        </mxCell>
        <mxCell id="f6SLV1mwWDFFY3GgYzQP-7" value="" style="shape=image;html=1;verticalAlign=top;verticalLabelPosition=bottom;labelBackgroundColor=#ffffff;imageAspect=0;aspect=fixed;image=https://cdn2.iconfinder.com/data/icons/mobile-smart-phone/64/mobile_bill_contract_receipt_cost_service_document-128.png" vertex="1" parent="f6SLV1mwWDFFY3GgYzQP-1">
          <mxGeometry x="460" y="813.8" width="128" height="128" as="geometry" />
        </mxCell>
        <mxCell id="f6SLV1mwWDFFY3GgYzQP-8" value="" style="points=[[0,0,0],[0.25,0,0],[0.5,0,0],[0.75,0,0],[1,0,0],[0,1,0],[0.25,1,0],[0.5,1,0],[0.75,1,0],[1,1,0],[0,0.25,0],[0,0.5,0],[0,0.75,0],[1,0.25,0],[1,0.5,0],[1,0.75,0]];outlineConnect=0;fontColor=#232F3E;gradientColor=#4AB29A;gradientDirection=north;fillColor=#116D5B;strokeColor=#ffffff;dashed=0;verticalLabelPosition=bottom;verticalAlign=top;align=center;html=1;fontSize=12;fontStyle=0;aspect=fixed;shape=mxgraph.aws4.resourceIcon;resIcon=mxgraph.aws4.machine_learning;" vertex="1" parent="f6SLV1mwWDFFY3GgYzQP-1">
          <mxGeometry x="342" y="980" width="78" height="78" as="geometry" />
        </mxCell>
        <mxCell id="f6SLV1mwWDFFY3GgYzQP-9" value="" style="whiteSpace=wrap;html=1;shape=mxgraph.basic.cloud_callout;direction=east;" vertex="1" parent="f6SLV1mwWDFFY3GgYzQP-1">
          <mxGeometry x="260" y="330" width="160" height="120" as="geometry" />
        </mxCell>
        <mxCell id="f6SLV1mwWDFFY3GgYzQP-10" value="Let&#39;s do a contract. This will benefit farming and increase your income" style="text;html=1;strokeColor=none;fillColor=none;align=center;verticalAlign=middle;whiteSpace=wrap;rounded=0;" vertex="1" parent="f6SLV1mwWDFFY3GgYzQP-1">
          <mxGeometry x="292.5" y="360" width="97.5" height="30" as="geometry" />
        </mxCell>
        <mxCell id="f6SLV1mwWDFFY3GgYzQP-11" value="" style="whiteSpace=wrap;html=1;shape=mxgraph.basic.cloud_callout" vertex="1" parent="f6SLV1mwWDFFY3GgYzQP-1">
          <mxGeometry x="450" y="350" width="210" height="170" as="geometry" />
        </mxCell>
        <mxCell id="f6SLV1mwWDFFY3GgYzQP-12" value="Mine and other farmer&#39;s past experience with contract farming has not been good. Buyer do things to their advantage while we bear all risk." style="text;html=1;strokeColor=none;fillColor=none;align=center;verticalAlign=middle;whiteSpace=wrap;rounded=0;" vertex="1" parent="f6SLV1mwWDFFY3GgYzQP-1">
          <mxGeometry x="480" y="380" width="140" height="70" as="geometry" />
        </mxCell>
        <mxCell id="f6SLV1mwWDFFY3GgYzQP-13" value="Buyer" style="text;html=1;strokeColor=none;fillColor=none;align=center;verticalAlign=middle;whiteSpace=wrap;rounded=0;" vertex="1" parent="f6SLV1mwWDFFY3GgYzQP-1">
          <mxGeometry x="204" y="528" width="40" height="20" as="geometry" />
        </mxCell>
        <mxCell id="f6SLV1mwWDFFY3GgYzQP-14" value="Farmer" style="text;html=1;strokeColor=none;fillColor=none;align=center;verticalAlign=middle;whiteSpace=wrap;rounded=0;" vertex="1" parent="f6SLV1mwWDFFY3GgYzQP-1">
          <mxGeometry x="390" y="570" width="40" height="20" as="geometry" />
        </mxCell>
        <mxCell id="f6SLV1mwWDFFY3GgYzQP-15" value="Farmer" style="text;html=1;strokeColor=none;fillColor=none;align=center;verticalAlign=middle;whiteSpace=wrap;rounded=0;" vertex="1" parent="f6SLV1mwWDFFY3GgYzQP-1">
          <mxGeometry x="390" y="750" width="40" height="20" as="geometry" />
        </mxCell>
        <mxCell id="f6SLV1mwWDFFY3GgYzQP-16" value="Insurance company" style="text;html=1;strokeColor=none;fillColor=none;align=center;verticalAlign=middle;whiteSpace=wrap;rounded=0;" vertex="1" parent="f6SLV1mwWDFFY3GgYzQP-1">
          <mxGeometry x="69" y="760" width="110" height="20" as="geometry" />
        </mxCell>
        <mxCell id="f6SLV1mwWDFFY3GgYzQP-17" value="" style="whiteSpace=wrap;html=1;shape=mxgraph.basic.cloud_callout;direction=east;" vertex="1" parent="f6SLV1mwWDFFY3GgYzQP-1">
          <mxGeometry x="179" y="590" width="191" height="120" as="geometry" />
        </mxCell>
        <mxCell id="f6SLV1mwWDFFY3GgYzQP-18" value="Insurance could save you from unforeseen losses. Why don&#39;t you buy an insurance policy?" style="text;html=1;strokeColor=none;fillColor=none;align=center;verticalAlign=middle;whiteSpace=wrap;rounded=0;" vertex="1" parent="f6SLV1mwWDFFY3GgYzQP-1">
          <mxGeometry x="210" y="620" width="130" height="40" as="geometry" />
        </mxCell>
        <mxCell id="f6SLV1mwWDFFY3GgYzQP-21" value="" style="whiteSpace=wrap;html=1;shape=mxgraph.basic.cloud_callout" vertex="1" parent="f6SLV1mwWDFFY3GgYzQP-1">
          <mxGeometry x="430" y="600" width="220" height="90" as="geometry" />
        </mxCell>
        <mxCell id="f6SLV1mwWDFFY3GgYzQP-22" value="Insurances could help me. However, I am sceptic of Insurances." style="text;html=1;strokeColor=none;fillColor=none;align=center;verticalAlign=middle;whiteSpace=wrap;rounded=0;" vertex="1" parent="f6SLV1mwWDFFY3GgYzQP-1">
          <mxGeometry x="440" y="630" width="190" height="10" as="geometry" />
        </mxCell>
        <mxCell id="f6SLV1mwWDFFY3GgYzQP-25" value="Blockchain" style="text;html=1;strokeColor=none;fillColor=none;align=center;verticalAlign=middle;whiteSpace=wrap;rounded=0;" vertex="1" parent="f6SLV1mwWDFFY3GgYzQP-1">
          <mxGeometry x="150" y="950" width="120" height="20" as="geometry" />
        </mxCell>
        <mxCell id="f6SLV1mwWDFFY3GgYzQP-26" value="" style="whiteSpace=wrap;html=1;shape=mxgraph.basic.cloud_callout" vertex="1" parent="f6SLV1mwWDFFY3GgYzQP-1">
          <mxGeometry x="170" y="800" width="120" height="80" as="geometry" />
        </mxCell>
        <mxCell id="f6SLV1mwWDFFY3GgYzQP-27" value="I can solve the problem" style="text;html=1;strokeColor=none;fillColor=none;align=center;verticalAlign=middle;whiteSpace=wrap;rounded=0;" vertex="1" parent="f6SLV1mwWDFFY3GgYzQP-1">
          <mxGeometry x="190" y="820" width="70" height="20" as="geometry" />
        </mxCell>
        <mxCell id="f6SLV1mwWDFFY3GgYzQP-28" value="Smart contract" style="text;html=1;strokeColor=none;fillColor=none;align=center;verticalAlign=middle;whiteSpace=wrap;rounded=0;" vertex="1" parent="f6SLV1mwWDFFY3GgYzQP-1">
          <mxGeometry x="470" y="950" width="100" height="20" as="geometry" />
        </mxCell>
        <mxCell id="f6SLV1mwWDFFY3GgYzQP-31" value="Machine Learning" style="text;html=1;strokeColor=none;fillColor=none;align=center;verticalAlign=middle;whiteSpace=wrap;rounded=0;" vertex="1" parent="f6SLV1mwWDFFY3GgYzQP-1">
          <mxGeometry x="316" y="1070" width="130" height="20" as="geometry" />
        </mxCell>
        <mxCell id="f6SLV1mwWDFFY3GgYzQP-32" value="" style="whiteSpace=wrap;html=1;shape=mxgraph.basic.cloud_callout" vertex="1" parent="f6SLV1mwWDFFY3GgYzQP-1">
          <mxGeometry x="430" y="990" width="200" height="100" as="geometry" />
        </mxCell>
        <mxCell id="f6SLV1mwWDFFY3GgYzQP-33" value="I can provide inputs and help predicting crop yield and selecting crop" style="text;html=1;strokeColor=none;fillColor=none;align=center;verticalAlign=middle;whiteSpace=wrap;rounded=0;" vertex="1" parent="f6SLV1mwWDFFY3GgYzQP-1">
          <mxGeometry x="465" y="1020" width="130" height="20" as="geometry" />
        </mxCell>
      </root>
    </mxGraphModel>
  </diagram>
</mxfile>
